# xmcd
#
# Track frame offsets: 
#        150
#        21069
#        38297
#        69575
#        88477
#        107907
#        125004
#        142387
#        160317
#        184280
#        211682
#        229225
#        249310
#
# Disc length: 3582 seconds
#
# Revision: 0
# Processed by: cddbd v1.5PL3 Copyright (c) Steve Scherf et al.
# Submitted via: ExactAudioCopy v0.95a3
#
DISCID=ba0dfc0d
DTITLE=Tina Diamond - In The Heart Of The City
DYEAR=1999
DGENRE=Soul
TTITLE0=Heart Of The City(feat. Ms. Peaches)
TTITLE1=You're Not My Honey Poo(feat. Rue Davis)
TTITLE2=Positive I.D.(If She Was You)
TTITLE3=Life On The Line(feat. Raggie P.)
TTITLE4=Somebody Wants You
TTITLE5=Lady Diva
TTITLE6=Cleanin' House
TTITLE7=Let Me Be The One
TTITLE8=Spend The Night
TTITLE9=You Don't Have To Hurt
TTITLE10=Love Me Tonight
TTITLE11=Don't Play With My Heart
TTITLE12=Casino Queen(Bonus Track)
EXTD=
EXTT0=
EXTT1=
EXTT2=
EXTT3=
EXTT4=
EXTT5=
EXTT6=
EXTT7=
EXTT8=
EXTT9=
EXTT10=
EXTT11=
EXTT12=
PLAYORDER=
